%FSLAX23Y23*%
%MOIN*%
G04 EasyPC Gerber Version 17.0 Build 3379 *
%ADD10C,0.00500*%
%ADD21C,0.00598*%
%ADD71C,0.00600*%
%ADD11C,0.00800*%
%ADD16C,0.01000*%
X0Y0D02*
D02*
D10*
X2599Y55D02*
X4489D01*
Y1236*
X2599*
Y55*
X2614Y745D02*
Y545D01*
X2739*
Y745*
X2614*
X2639Y145D02*
X2679D01*
X2639Y165D02*
X2679D01*
X2752Y857D02*
Y1173D01*
X2628*
Y857*
X2752*
X2799Y315D02*
Y275D01*
X2819Y315D02*
Y275D01*
X2912Y857D02*
Y1173D01*
X2788*
Y857*
X2912*
X2929Y295D02*
Y75D01*
X3009*
Y295*
X2929*
X2944Y160D02*
X2994D01*
X2969D02*
X2944Y210D01*
X2994*
X2969Y160*
X2989Y465D02*
Y425D01*
Y915D02*
Y875D01*
X3009Y465D02*
Y425D01*
Y915D02*
Y875D01*
X3119Y295D02*
Y75D01*
X3199*
Y295*
X3119*
X3134Y160D02*
X3184D01*
X3159D02*
X3134Y210D01*
X3184*
X3159Y160*
X3209Y1135D02*
Y1175D01*
X3214Y650D02*
X3174Y690D01*
X3229Y1135D02*
Y1175D01*
X3319Y295D02*
Y75D01*
X3399*
Y295*
X3319*
X3334Y160D02*
X3384D01*
X3359D02*
X3334Y210D01*
X3384*
X3359Y160*
X3393Y560D02*
X3125D01*
Y430*
X3393*
Y560*
X3479Y445D02*
Y405D01*
Y505D02*
Y545D01*
X3489Y295D02*
Y75D01*
X3569*
Y295*
X3489*
X3499Y445D02*
Y405D01*
Y505D02*
Y545D01*
X3504Y160D02*
X3554D01*
X3529D02*
X3504Y210D01*
X3554*
X3529Y160*
X3659Y205D02*
Y165D01*
Y645D02*
X3699D01*
X3659Y665D02*
X3699D01*
X3679Y205D02*
Y165D01*
X3859Y595D02*
Y555D01*
X3879Y595D02*
Y555D01*
X3909Y945D02*
Y985D01*
Y1045D02*
Y1085D01*
X3929Y945D02*
Y985D01*
Y1045D02*
Y1085D01*
X3969Y390D02*
X3939Y420D01*
X4094Y355D02*
G75*
G03Y330J-13D01*
G01*
G75*
G03Y355J13*
G01*
X4397Y328D02*
Y82D01*
X4114*
Y328*
X4119*
Y328*
X4144*
Y328*
X4397*
D02*
D11*
X3973Y330D02*
X3784D01*
Y420*
X3973*
Y330*
D02*
D16*
X3579Y1115D02*
X3979D01*
Y1215*
X3579*
Y1115*
D02*
D71*
X2630Y326D02*
X2687D01*
Y383*
X2630*
Y326*
X2649Y1198D02*
X2651Y1194D01*
X2656Y1192*
X2665*
X2669Y1194*
X2671Y1198*
X2669Y1203*
X2665Y1205*
X2656*
X2651Y1207*
X2649Y1212*
X2651Y1216*
X2656Y1219*
X2665*
X2669Y1216*
X2671Y1212*
X2685Y1219D02*
X2687Y1192D01*
X2696Y1205*
X2705Y1192*
X2707Y1219*
X2725Y1192D02*
X2734D01*
X2730D02*
Y1219D01*
X2725Y1214*
X2784Y126D02*
X2814D01*
X2809Y1198D02*
X2811Y1194D01*
X2816Y1192*
X2825*
X2829Y1194*
X2831Y1198*
X2829Y1203*
X2825Y1205*
X2816*
X2811Y1207*
X2809Y1212*
X2811Y1216*
X2816Y1219*
X2825*
X2829Y1216*
X2831Y1212*
X2845Y1219D02*
X2847Y1192D01*
X2856Y1205*
X2865Y1192*
X2867Y1219*
X2899Y1192D02*
X2881D01*
X2897Y1207*
X2899Y1212*
X2897Y1216*
X2892Y1219*
X2885*
X2881Y1216*
X2814Y244D02*
X2784D01*
X2832Y172D02*
Y198D01*
X2837Y376D02*
Y433D01*
X2780*
Y376*
X2837*
X2970Y373D02*
Y316D01*
X3027*
Y373*
X2970*
Y563D02*
Y506D01*
X3027*
Y563*
X2970*
Y653D02*
Y596D01*
X3027*
Y653*
X2970*
Y743D02*
Y686D01*
X3027*
Y743*
X2970*
Y833D02*
Y776D01*
X3027*
Y833*
X2970*
X3037Y1106D02*
Y1163D01*
X2980*
Y1106*
X3037*
X3052Y95D02*
X3025D01*
Y117*
X3039Y113D02*
Y95D01*
X3052D02*
Y117D01*
Y131D02*
X3025D01*
Y147*
X3027Y151*
X3032Y153*
X3036Y151*
X3039Y147*
Y131*
Y147D02*
X3052Y153D01*
Y167D02*
X3025D01*
Y183*
X3027Y187*
X3032Y189*
X3036Y187*
X3039Y183*
Y167*
Y183D02*
X3052Y189D01*
X3043Y203D02*
X3034D01*
X3030Y205*
X3027Y207*
X3025Y212*
Y216*
X3027Y221*
X3030Y223*
X3034Y225*
X3043*
X3048Y223*
X3050Y221*
X3052Y216*
Y212*
X3050Y207*
X3048Y205*
X3043Y203*
X3052Y239D02*
X3025D01*
Y255*
X3027Y259*
X3032Y261*
X3036Y259*
X3039Y255*
Y239*
Y255D02*
X3052Y261D01*
X3140Y373D02*
Y316D01*
X3197*
Y373*
X3140*
X3242Y95D02*
X3215D01*
Y108*
X3217Y113*
X3220Y115*
X3224Y117*
X3233*
X3238Y115*
X3240Y113*
X3242Y108*
Y95*
Y131D02*
X3215D01*
Y153*
X3229Y149D02*
Y131D01*
X3242D02*
Y153D01*
X3229Y183D02*
X3231Y187D01*
X3235Y189*
X3240Y187*
X3242Y183*
Y167*
X3215*
Y183*
X3217Y187*
X3222Y189*
X3226Y187*
X3229Y183*
Y167*
X3215Y203D02*
X3235D01*
X3240Y205*
X3242Y210*
Y219*
X3240Y223*
X3235Y225*
X3215*
X3231Y255D02*
Y261D01*
X3233*
X3238Y259*
X3240Y257*
X3242Y252*
Y248*
X3240Y243*
X3238Y241*
X3233Y239*
X3224*
X3220Y241*
X3217Y243*
X3215Y248*
Y252*
X3217Y257*
X3220Y259*
X3224Y261*
X3340Y373D02*
Y316D01*
X3397*
Y373*
X3340*
X3438Y137D02*
X3440Y135D01*
X3442Y131*
Y124*
X3440Y119*
X3438Y117*
X3433Y115*
X3424*
X3420Y117*
X3417Y119*
X3415Y124*
Y131*
X3417Y135*
X3420Y137*
X3433Y151D02*
X3424D01*
X3420Y153*
X3417Y155*
X3415Y160*
Y164*
X3417Y169*
X3420Y171*
X3424Y173*
X3433*
X3438Y171*
X3440Y169*
X3442Y164*
Y160*
X3440Y155*
X3438Y153*
X3433Y151*
X3442Y187D02*
X3415D01*
X3429Y198*
X3415Y209*
X3442*
Y223D02*
X3415D01*
X3429Y234*
X3415Y245*
X3442*
X3469Y321D02*
X3487D01*
X3478Y312D02*
Y330D01*
X3507Y314D02*
X3512Y312D01*
X3516*
X3521Y314*
X3523Y318*
X3521Y323*
X3516Y325*
X3512*
X3516D02*
X3521Y327D01*
X3523Y332*
X3521Y336*
X3516Y339*
X3512*
X3507Y336*
X3541Y339D02*
X3552Y312D01*
X3563Y339*
X3533Y1162D02*
X3542D01*
X3538D02*
Y1189D01*
X3533Y1184*
X3529Y645D02*
X3189D01*
X3169Y665*
Y1005*
X3189Y1025*
X3529*
X3549Y1005*
Y665*
X3529Y645*
X3599Y487D02*
Y447D01*
X3636*
X3631Y96D02*
X3629Y94D01*
X3625Y92*
X3618*
X3613Y94*
X3611Y96*
X3609Y101*
Y110*
X3611Y114*
X3613Y116*
X3618Y119*
X3625*
X3629Y116*
X3631Y114*
X3645Y92D02*
X3656Y119D01*
X3667Y92*
X3649Y103D02*
X3663D01*
X3681Y92D02*
Y119D01*
X3703Y92*
Y119*
X3619Y1076D02*
X3621Y1074D01*
X3626Y1072*
X3630Y1074*
X3632Y1076*
Y1099*
X3637*
X3632D02*
X3623D01*
X3666Y1072D02*
Y1099D01*
X3655Y1081*
X3673*
X3640Y303D02*
Y246D01*
X3697*
Y303*
X3640*
X3670Y916D02*
X3727D01*
Y973*
X3670*
Y916*
X3673Y502D02*
X3645D01*
X3682Y447D02*
X3718D01*
Y487*
X3789Y209D02*
Y182D01*
X3811*
X3867Y645D02*
X4011D01*
X3908Y218D02*
Y191D01*
X3919D02*
X3896D01*
X3951Y645D02*
G75*
G03X3927I-12D01*
G01*
X3999Y182D02*
Y209D01*
Y195D02*
X4021D01*
Y182D02*
Y209D01*
X3999Y476D02*
X4001Y474D01*
X4006Y472*
X4010Y474*
X4012Y476*
Y499*
X4017*
X4012D02*
X4003D01*
X4035Y472D02*
Y499D01*
X4051*
X4055Y496*
X4057Y492*
X4055Y487*
X4051Y485*
X4035*
X4075Y472D02*
X4084D01*
X4080D02*
Y499D01*
X4075Y494*
X4011Y905D02*
X3867D01*
X4030Y1152D02*
Y1179D01*
X4019Y1161*
X4037*
X4020Y986D02*
X4077D01*
Y1043*
X4020*
Y986*
X4067Y343D02*
X4010D01*
Y286*
X4067*
Y343*
X4088Y447D02*
Y403D01*
X4010*
Y447*
X4088*
X4088Y575D02*
X4090Y577D01*
X4092Y582*
X4090Y586*
X4088Y588*
X4065*
Y593*
Y588D02*
Y579D01*
X4092Y629D02*
Y611D01*
X4076Y627*
X4072Y629*
X4067Y627*
X4065Y622*
Y615*
X4067Y611*
X4109Y1185D02*
Y385D01*
X4469*
Y1185*
X4146Y562D02*
X4150Y564D01*
X4155Y568*
X4157Y575*
Y582*
X4155Y586*
X4150Y589*
X4146*
X4141Y586*
X4139Y582*
X4141Y577*
X4146Y575*
X4150*
X4155Y577*
X4157Y582*
X4143Y982D02*
X4152D01*
X4148D02*
Y1009D01*
X4143Y1004*
X4195Y1175D02*
X4199Y1173D01*
X4201Y1168*
X4199Y1164*
X4195Y1162*
X4179*
Y1189*
X4195*
X4199Y1186*
X4201Y1182*
X4199Y1177*
X4195Y1175*
X4179*
X4215Y1162D02*
Y1189D01*
X4226Y1175*
X4237Y1189*
Y1162*
X4251D02*
X4262Y1189D01*
X4273Y1162*
X4255Y1173D02*
X4269D01*
X4303D02*
X4309D01*
Y1171*
X4307Y1166*
X4305Y1164*
X4300Y1162*
X4296*
X4291Y1164*
X4289Y1166*
X4287Y1171*
Y1180*
X4289Y1184*
X4291Y1186*
X4296Y1189*
X4300*
X4305Y1186*
X4307Y1184*
X4309Y1180*
X4330Y1162D02*
X4339D01*
X4334D02*
Y1189D01*
X4330D02*
X4339D01*
X4381Y1166D02*
X4379Y1164D01*
X4375Y1162*
X4368*
X4363Y1164*
X4361Y1166*
X4359Y1171*
Y1180*
X4361Y1184*
X4363Y1186*
X4368Y1189*
X4375*
X4379Y1186*
X4381Y1184*
X4209Y1130D02*
X4218Y1112D01*
X4227Y1130*
X4249Y1112D02*
X4258D01*
X4254D02*
Y1139D01*
X4249Y1134*
X4283Y1112D02*
X4285Y1114D01*
X4283Y1116*
X4281Y1114*
X4283Y1112*
X4321D02*
X4330D01*
X4326D02*
Y1139D01*
X4321Y1134*
X4393Y562D02*
X4402D01*
X4398D02*
Y589D01*
X4393Y584*
X4427Y564D02*
X4432Y562D01*
X4436*
X4441Y564*
X4443Y568*
Y582*
X4441Y586*
X4436Y589*
X4432*
X4427Y586*
X4425Y582*
Y568*
X4427Y564*
X4441Y586*
X4427Y982D02*
X4409D01*
X4425Y997*
X4427Y1002*
X4425Y1006*
X4420Y1009*
X4413*
X4409Y1006*
D02*
D21*
X4059Y175D02*
Y75D01*
X3759*
Y175*
X4059*
X0Y0D02*
M02*
