%FSLAX23Y23*%
%MOIN*%
G04 EasyPC Gerber Version 16.0.6 Build 3249 *
%ADD20C,0.00300*%
%ADD70C,0.00400*%
%ADD10C,0.00500*%
%ADD21C,0.00598*%
%ADD71C,0.00600*%
%ADD11C,0.00800*%
X0Y0D02*
D02*
D10*
X2599Y55D02*
X4489D01*
Y1236*
X2599*
Y55*
X2614Y745D02*
Y545D01*
X2739*
Y745*
X2614*
X2639Y145D02*
X2679D01*
X2639Y165D02*
X2679D01*
X2752Y857D02*
Y1173D01*
X2628*
Y857*
X2752*
X2799Y315D02*
Y275D01*
X2819Y315D02*
Y275D01*
X2912Y857D02*
Y1173D01*
X2788*
Y857*
X2912*
X2929Y295D02*
Y75D01*
X3009*
Y295*
X2929*
X2944Y160D02*
X2994D01*
X2969D02*
X2944Y210D01*
X2994*
X2969Y160*
Y465D02*
Y425D01*
X2989Y465D02*
Y425D01*
Y905D02*
Y865D01*
X3009Y905D02*
Y865D01*
X3119Y295D02*
Y75D01*
X3199*
Y295*
X3119*
X3134Y160D02*
X3184D01*
X3159D02*
X3134Y210D01*
X3184*
X3159Y160*
X3209Y1135D02*
Y1175D01*
X3214Y650D02*
X3174Y690D01*
X3229Y1135D02*
Y1175D01*
X3319Y295D02*
Y75D01*
X3399*
Y295*
X3319*
X3334Y160D02*
X3384D01*
X3359D02*
X3334Y210D01*
X3384*
X3359Y160*
X3393Y560D02*
X3125D01*
Y430*
X3393*
Y560*
X3479Y455D02*
Y415D01*
Y535D02*
Y495D01*
X3489Y295D02*
Y75D01*
X3569*
Y295*
X3489*
X3499Y455D02*
Y415D01*
Y535D02*
Y495D01*
X3504Y160D02*
X3554D01*
X3529D02*
X3504Y210D01*
X3554*
X3529Y160*
X3659Y645D02*
X3699D01*
X3659Y665D02*
X3699D01*
X3689Y225D02*
X3729D01*
X3689Y245D02*
X3729D01*
X3859Y595D02*
Y555D01*
X3879Y595D02*
Y555D01*
X3909Y945D02*
Y985D01*
Y1045D02*
Y1085D01*
X3929Y945D02*
Y985D01*
Y1045D02*
Y1085D01*
X3969Y390D02*
X3939Y420D01*
X4094Y365D02*
G75*
G03Y340J-13D01*
G01*
G75*
G03Y365J13*
G01*
X4397Y338D02*
Y92D01*
X4114*
Y338*
X4119*
Y338*
X4144*
Y338*
X4397*
D02*
D11*
X3973Y330D02*
X3784D01*
Y420*
X3973*
Y330*
D02*
D70*
X2649Y1187D02*
X2651Y1183D01*
X2655Y1181*
X2663*
X2667Y1183*
X2669Y1187*
X2667Y1191*
X2663Y1193*
X2655*
X2651Y1195*
X2649Y1199*
X2651Y1203*
X2655Y1205*
X2663*
X2667Y1203*
X2669Y1199*
X2681Y1205D02*
X2683Y1181D01*
X2691Y1193*
X2699Y1181*
X2701Y1205*
X2717Y1181D02*
X2725D01*
X2721D02*
Y1205D01*
X2717Y1201*
X2809Y1187D02*
X2811Y1183D01*
X2815Y1181*
X2823*
X2827Y1183*
X2829Y1187*
X2827Y1191*
X2823Y1193*
X2815*
X2811Y1195*
X2809Y1199*
X2811Y1203*
X2815Y1205*
X2823*
X2827Y1203*
X2829Y1199*
X2841Y1205D02*
X2843Y1181D01*
X2851Y1193*
X2859Y1181*
X2861Y1205*
X2889Y1181D02*
X2873D01*
X2887Y1195*
X2889Y1199*
X2887Y1203*
X2883Y1205*
X2877*
X2873Y1203*
X2891Y75D02*
X2921D01*
Y100*
Y115D02*
X2891D01*
Y140*
X2906Y135D02*
Y115D01*
X2921D02*
Y140D01*
Y155D02*
X2891D01*
Y170*
X2894Y175*
X2896Y177*
X2901Y180*
X2911*
X2916Y177*
X2919Y175*
X2921Y170*
Y155*
Y215D02*
Y195D01*
X2904Y212*
X2899Y215*
X2894Y212*
X2891Y207*
Y200*
X2894Y195*
X3081Y75D02*
X3111D01*
Y100*
Y115D02*
X3081D01*
Y140*
X3096Y135D02*
Y115D01*
X3111D02*
Y140D01*
Y155D02*
X3081D01*
Y170*
X3084Y175*
X3086Y177*
X3091Y180*
X3101*
X3106Y177*
X3109Y175*
X3111Y170*
Y155*
Y200D02*
Y210D01*
Y205D02*
X3081D01*
X3086Y200*
X3281Y75D02*
X3311D01*
Y100*
Y115D02*
X3281D01*
Y140*
X3296Y135D02*
Y115D01*
X3311D02*
Y140D01*
Y155D02*
X3281D01*
Y170*
X3284Y175*
X3286Y177*
X3291Y180*
X3301*
X3306Y177*
X3309Y175*
X3311Y170*
Y155*
X3309Y197D02*
X3311Y202D01*
Y207*
X3309Y212*
X3304Y215*
X3289*
X3284Y212*
X3281Y207*
Y202*
X3284Y197*
X3289Y195*
X3304*
X3309Y197*
X3284Y212*
X3471Y75D02*
Y95D01*
X3481Y85D02*
X3461D01*
X3479Y117D02*
X3481Y122D01*
Y127*
X3479Y132*
X3474Y135*
X3469Y132*
X3466Y127*
Y122*
Y127D02*
X3464Y132D01*
X3459Y135*
X3454Y132*
X3451Y127*
Y122*
X3454Y117*
X3451Y155D02*
X3481Y167D01*
X3451Y180*
X3664Y107D02*
X3661Y105D01*
X3656Y102*
X3649*
X3644Y105*
X3641Y107*
X3639Y112*
Y122*
X3641Y127*
X3644Y130*
X3649Y132*
X3656*
X3661Y130*
X3664Y127*
X3679Y102D02*
X3691Y132D01*
X3704Y102*
X3684Y115D02*
X3699D01*
X3719Y102D02*
Y132D01*
X3744Y102*
Y132*
X3999Y455D02*
X4001Y453D01*
X4005Y451*
X4009Y453*
X4011Y455*
Y475*
X4015*
X4011D02*
X4003D01*
X4031Y451D02*
Y475D01*
X4045*
X4049Y473*
X4051Y469*
X4049Y465*
X4045Y463*
X4031*
X4067Y451D02*
X4075D01*
X4071D02*
Y475D01*
X4067Y471*
X4079Y515D02*
X4081Y517D01*
X4083Y521*
X4081Y525*
X4079Y527*
X4059*
Y531*
Y527D02*
Y519D01*
X4083Y551D02*
Y559D01*
Y555D02*
X4059D01*
X4063Y551*
X4081Y581D02*
X4083Y585D01*
Y589*
X4081Y593*
X4077Y595*
X4073Y593*
X4071Y589*
Y585*
Y589D02*
X4069Y593D01*
X4065Y595*
X4061Y593*
X4059Y589*
Y585*
X4061Y581*
X4141Y1173D02*
X4147Y1170D01*
X4150Y1164*
X4147Y1157*
X4141Y1154*
X4119*
Y1192*
X4141*
X4147Y1189*
X4150Y1182*
X4147Y1176*
X4141Y1173*
X4119*
X4169Y1154D02*
Y1192D01*
X4185Y1173*
X4200Y1192*
Y1154*
X4219D02*
X4235Y1192D01*
X4250Y1154*
X4225Y1170D02*
X4244D01*
X4291D02*
X4300D01*
Y1167*
X4297Y1161*
X4294Y1157*
X4288Y1154*
X4281*
X4275Y1157*
X4272Y1161*
X4269Y1167*
Y1179*
X4272Y1186*
X4275Y1189*
X4281Y1192*
X4288*
X4294Y1189*
X4297Y1186*
X4300Y1179*
X4328Y1154D02*
X4341D01*
X4335D02*
Y1192D01*
X4328D02*
X4341D01*
X4400Y1161D02*
X4397Y1157D01*
X4391Y1154*
X4381*
X4375Y1157*
X4372Y1161*
X4369Y1167*
Y1179*
X4372Y1186*
X4375Y1189*
X4381Y1192*
X4391*
X4397Y1189*
X4400Y1186*
X4419Y1154D02*
Y1192D01*
Y1173D02*
X4428D01*
X4450Y1192*
X4428Y1173D02*
X4450Y1154D01*
X4149Y1122D02*
Y1084D01*
X4180*
X4215D02*
Y1103D01*
X4199Y1122*
X4215Y1103D02*
X4230Y1122D01*
X4249Y1097D02*
Y1109D01*
X4252Y1116*
X4255Y1119*
X4261Y1122*
X4268*
X4274Y1119*
X4277Y1116*
X4280Y1109*
Y1097*
X4277Y1091*
X4274Y1087*
X4268Y1084*
X4261*
X4255Y1087*
X4252Y1091*
X4249Y1097*
X4299Y1084D02*
Y1122D01*
X4321*
X4327Y1119*
X4330Y1112*
X4327Y1106*
X4321Y1103*
X4299*
X4321D02*
X4330Y1084D01*
X4349D02*
X4365Y1122D01*
X4380Y1084*
X4355Y1100D02*
X4374D01*
X4399Y1084D02*
Y1122D01*
Y1103D02*
X4408D01*
X4430Y1122*
X4408Y1103D02*
X4430Y1084D01*
D02*
D71*
X2630Y326D02*
X2687D01*
Y383*
X2630*
Y326*
X2784Y126D02*
X2814D01*
Y244D02*
X2784D01*
X2832Y172D02*
Y198D01*
X2837Y376D02*
Y433D01*
X2780*
Y376*
X2837*
X2950Y393D02*
Y336D01*
X3007*
Y393*
X2950*
Y543D02*
Y486D01*
X3007*
Y543*
X2950*
Y613D02*
Y556D01*
X3007*
Y613*
X2950*
Y713D02*
Y656D01*
X3007*
Y713*
X2950*
X2970Y833D02*
Y776D01*
X3027*
Y833*
X2970*
X3037Y1106D02*
Y1163D01*
X2980*
Y1106*
X3037*
X3140Y373D02*
Y316D01*
X3197*
Y373*
X3140*
X3340D02*
Y316D01*
X3397*
Y373*
X3340*
X3469Y1115D02*
X4094D01*
Y1215*
X3469*
Y1115*
X3529Y645D02*
X3189D01*
X3169Y665*
Y1005*
X3189Y1025*
X3529*
X3549Y1005*
Y665*
X3529Y645*
X3590Y206D02*
X3647D01*
Y263*
X3590*
Y206*
X3599Y487D02*
Y447D01*
X3636*
X3670Y916D02*
X3727D01*
Y973*
X3670*
Y916*
X3673Y502D02*
X3645D01*
X3682Y447D02*
X3718D01*
Y487*
X3867Y645D02*
X4011D01*
X3951D02*
G75*
G03X3927I-12D01*
G01*
X4011Y905D02*
X3867D01*
X4020Y986D02*
X4077D01*
Y1043*
X4020*
Y986*
X4067Y323D02*
X4010D01*
Y266*
X4067*
Y323*
X4088Y427D02*
Y383D01*
X4010*
Y427*
X4088*
X4109Y1185D02*
Y385D01*
X4469*
Y1185*
D02*
D20*
X3899Y792D02*
Y764D01*
X3902Y757*
X3908Y754*
X3921*
X3927Y757*
X3930Y764*
Y792*
X3955Y754D02*
X3968D01*
X3961D02*
Y792D01*
X3955Y786*
D02*
D21*
X4059Y185D02*
Y85D01*
X3759*
Y185*
X4059*
X0Y0D02*
M02*
