%FSLAX23Y23*%
%MOIN*%
G04 EasyPC Gerber Version 16.0.6 Build 3249 *
%ADD92R,0.06600X0.06600*%
%ADD104C,0.04200*%
%ADD105C,0.05000*%
%ADD93C,0.06600*%
%ADD103C,0.06600*%
X0Y0D02*
D02*
D92*
X3519Y1165D03*
X3809Y135D03*
X4239Y985D03*
D02*
D93*
X3909Y135D03*
X4009D03*
X4239Y585D03*
Y685D03*
Y785D03*
Y885D03*
X4339Y585D03*
Y685D03*
Y785D03*
Y885D03*
Y985D03*
D02*
D103*
X3619Y1165D03*
X3719D03*
X3819D03*
X3919D03*
X4019D03*
D02*
D104*
X2689Y985D03*
X2699Y1045D03*
X3009Y1005D03*
Y1085D03*
X3079Y585D03*
Y685D03*
Y985D03*
X3159Y615D03*
X3189Y695D03*
X3249Y945D03*
X3269Y345D03*
Y395D03*
X3289Y915D03*
X3319Y1155D03*
X3339Y915D03*
X3349Y965D03*
X3369Y345D03*
Y1005D03*
X3399Y865D03*
X3429Y705D03*
Y755D03*
X3439Y845D03*
Y1125D03*
X3489Y875D03*
X3529Y825D03*
Y1105D03*
X3539Y605D03*
X3589Y1045D03*
X3639Y825D03*
X3659Y365D03*
X3749Y405D03*
Y455D03*
Y1045D03*
X3759Y515D03*
X3769Y865D03*
Y965D03*
X3909Y975D03*
X3999Y735D03*
X4139Y365D03*
X4279Y415D03*
Y495D03*
X4329Y355D03*
X4409Y265D03*
Y455D03*
X4439Y115D03*
Y165D03*
D02*
D105*
X2659Y255D03*
X2719Y105D03*
X2799Y185D03*
X2859Y505D03*
Y715D03*
Y775D03*
X2949Y945D03*
X3489Y475D03*
X3599Y115D03*
X3689Y1045D03*
X3739Y595D03*
X3969Y575D03*
X4089Y115D03*
X0Y0D02*
M02*
