%FSLAX23Y23*%
%MOIN*%
G04 EasyPC Gerber Version 17.0 Build 3379 *
%ADD12R,0.06000X0.06000*%
%ADD10C,0.00500*%
%ADD16C,0.01000*%
%ADD107C,0.01200*%
%ADD19C,0.01500*%
%ADD18C,0.02000*%
%ADD15C,0.03600*%
%ADD17C,0.04400*%
%ADD13C,0.06000*%
X0Y0D02*
D02*
D10*
X2599Y55D02*
X4489D01*
Y1236*
X2599*
Y55*
X2688Y80D02*
G75*
G02X2679Y105I31J25D01*
G01*
G75*
G02X2758I40*
G01*
G75*
G02X2750Y80I-40*
G01*
X3894*
G75*
G02X3861Y125I15J45*
G01*
G75*
G02X3956I48*
G01*
G75*
G02X3924Y80I-48*
G01*
X4058*
G75*
G02X4049Y105I31J25*
G01*
G75*
G02X4128I40*
G01*
G75*
G02X4120Y80I-40*
G01*
X4411*
G75*
G02X4406Y85I17J25*
G01*
G75*
G02X4395Y91I3J20*
G01*
X4355Y131*
G75*
G02X4349Y145I14J14*
G01*
Y332*
G75*
G02X4298Y355I-20J23*
G01*
G75*
G02X4309Y378I31*
G01*
Y409*
G75*
G02X4248Y415I-30J5*
G01*
G75*
G02X4259Y438I31*
G01*
Y472*
G75*
G02X4248Y495I20J23*
G01*
G75*
G02X4309Y500I31*
G01*
Y517*
X4275Y551*
G75*
G02X4273Y552I14J14*
G01*
G75*
G02X4239Y537I-35J33*
G01*
G75*
G02Y632J48*
G01*
G75*
G02X4269Y622J-48*
G01*
Y655*
G75*
G02X4209Y715I-30J30*
G01*
X4022*
G75*
G02X3968Y735I-23J20*
G01*
G75*
G02X4022Y755I31*
G01*
X4202*
G75*
G02X4269Y822I37J30*
G01*
Y848*
G75*
G02X4239Y837I-30J37*
G01*
G75*
G02Y932J48*
G01*
G75*
G02X4269Y922J-48*
G01*
Y935*
G75*
G02X4270Y942I20J0*
G01*
X4196*
Y1027*
X4281*
Y956*
X4298Y973*
G75*
G02X4339Y1027I41J12*
G01*
G75*
G02Y942J-43*
G01*
G75*
G02X4327Y944I0J43*
G01*
X4309Y927*
Y915*
G75*
G02X4339Y927I30J-30*
G01*
G75*
G02Y842J-43*
G01*
G75*
G02X4309Y855I0J43*
G01*
Y815*
G75*
G02X4339Y827I30J-30*
G01*
G75*
G02Y742J-43*
G01*
G75*
G02X4309Y755I0J43*
G01*
Y747*
G75*
G02Y723I-20J-12*
G01*
Y715*
G75*
G02X4376Y705I30J-30*
G01*
X4399*
G75*
G02X4413Y699J-20*
G01*
X4463Y649*
G75*
G02X4464Y648I-14J-14*
G01*
Y1211*
X3676*
Y1117*
X3581*
Y1211*
X2624*
Y80*
X2688*
X2636Y281D02*
Y475D01*
G75*
G02X2643Y491I23*
G01*
X2836Y684*
Y689*
G75*
G02X2824Y715I23J26*
G01*
G75*
G02X2893I35*
G01*
G75*
G02X2881Y689I-35*
G01*
Y675*
G75*
G02X2875Y659I-23*
G01*
X2681Y466*
Y281*
G75*
G02X2693Y255I-23J-26*
G01*
G75*
G02X2624I-35*
G01*
G75*
G02X2636Y281I35*
G01*
X2692Y1015D02*
G75*
G02X2704Y1075I7J30D01*
G01*
X2759Y1129*
G75*
G02X2790Y1142I20J-5*
G01*
X3286*
G75*
G02X3283Y1155I33J12*
G01*
G75*
G02X3354I36*
G01*
G75*
G02X3352Y1142I-36J0*
G01*
X3414*
G75*
G02X3467Y1112I25J-18*
G01*
X3499*
G75*
G02X3559Y1105I30J-8*
G01*
G75*
G02X3550Y1082I-31*
G01*
X3554*
G75*
G02X3609Y1065I25J-18*
G01*
G75*
G02X3554Y1047I-31*
G01*
X3526*
X3381Y903*
G75*
G02X3369Y897I-12J12*
G01*
X3364*
G75*
G02X3314Y897I-25J18*
G01*
G75*
G02X3284Y885I-25J17*
G01*
X3281Y883*
G75*
G02X3269Y877I-12J12*
G01*
X3246*
X3166Y798*
Y670*
G75*
G02X3146Y615I-18J-25*
G01*
Y575*
G75*
G02X3141Y563I-18*
G01*
X3129Y550*
G75*
G02X3129Y545I-30J-5*
G01*
G75*
G02X3068I-31*
G01*
G75*
G02X3081Y570I31*
G01*
G75*
G02X3068Y595I17J25*
G01*
G75*
G02X3069Y600I30J0*
G01*
X3067Y603*
G75*
G02X3061Y615I12J12*
G01*
Y915*
G75*
G02X3067Y927I18*
G01*
X3147Y1007*
G75*
G02X3159Y1012I12J-12*
G01*
X3364*
G75*
G02X3419Y990I25J-18*
G01*
X3507Y1077*
X3507Y1077*
X2979*
G75*
G02X2979Y1075I-30J-2*
G01*
G75*
G02X2918I-31*
G01*
G75*
G02X2954Y1105I31*
G01*
X2957Y1107*
X2957Y1107*
X2790*
G75*
G02X2783Y1105I-11J18*
G01*
X2729Y1050*
G75*
G02X2696Y1015I-30J-5*
G01*
G75*
G02X2714Y1002I-7J-30*
G01*
X2994*
G75*
G02X3049Y985I25J-18*
G01*
G75*
G02X2994Y967I-31*
G01*
X2714*
G75*
G02X2658Y985I-25J18*
G01*
G75*
G02X2692Y1015I31*
G01*
X2759Y185D02*
G75*
G02X2838I40D01*
G01*
G75*
G02X2759I-40*
G01*
X2819Y505D02*
G75*
G02X2898I40D01*
G01*
G75*
G02X2819I-40*
G01*
X2839Y805D02*
G75*
G02X2918I40D01*
G01*
G75*
G02X2839I-40*
G01*
X3173Y695D02*
G75*
G02X3244I36D01*
G01*
G75*
G02X3173I-36*
G01*
X3251Y420D02*
Y575D01*
G75*
G02X3257Y587I18*
G01*
X3331Y662*
Y815*
G75*
G02X3337Y827I18*
G01*
X3369Y860*
G75*
G02X3368Y865I30J5*
G01*
G75*
G02X3428Y873I31*
G01*
G75*
G02X3459Y868I11J-29*
G01*
G75*
G02X3458Y875I30J7*
G01*
G75*
G02X3519I31*
G01*
G75*
G02X3512Y855I-31*
G01*
G75*
G02X3542Y845I7J-30*
G01*
X3616*
G75*
G02X3669Y825I23J-20*
G01*
G75*
G02X3616Y805I-31*
G01*
X3542*
G75*
G02X3489Y820I-23J20*
G01*
X3451Y783*
G75*
G02X3447Y779I-12J12*
G01*
G75*
G02X3459Y760I-18J-25*
G01*
X3481Y737*
G75*
G02X3486Y725I-12J-12*
G01*
Y695*
G75*
G02X3481Y683I-18*
G01*
X3476Y678*
Y592*
X3596Y472*
X3724*
G75*
G02X3743Y485I25J-18*
G01*
G75*
G02X3754Y545I5J30*
G01*
X3801Y592*
Y868*
X3799Y870*
G75*
G02X3786Y840I-30J-5*
G01*
Y805*
G75*
G02X3781Y793I-18*
G01*
X3581Y593*
G75*
G02X3569Y587I-12J12*
G01*
X3564*
G75*
G02X3508Y605I-25J18*
G01*
G75*
G02X3563Y624I31*
G01*
X3751Y812*
Y840*
G75*
G02X3774Y895I18J25*
G01*
X3742Y927*
X3724*
G75*
G02X3668Y945I-25J18*
G01*
G75*
G02X3724Y962I31*
G01*
X3745*
G75*
G02X3723Y995I14J33*
G01*
G75*
G02X3794I36*
G01*
G75*
G02X3759Y959I-36*
G01*
G75*
G02X3761Y957I-10J-15*
G01*
X3831Y887*
G75*
G02X3836Y875I-12J-12*
G01*
Y585*
G75*
G02X3831Y573I-18*
G01*
X3779Y520*
G75*
G02X3754Y485I-30J-5*
G01*
G75*
G02X3766Y430I-5J-30*
G01*
G75*
G02X3754Y375I-17J-25*
G01*
X4116*
G75*
G02X4169Y355I23J-20*
G01*
G75*
G02X4116Y335I-31*
G01*
X3682*
G75*
G02X3628Y355I-23J20*
G01*
G75*
G02X3682Y375I31*
G01*
X3743*
G75*
G02X3724Y387I5J30*
G01*
X3609*
G75*
G02X3597Y393J18*
G01*
X3523Y466*
G75*
G02X3453Y475I-34J9*
G01*
G75*
G02X3480Y509I36*
G01*
X3417Y573*
G75*
G02X3411Y585I12J12*
G01*
Y680*
G75*
G02X3406Y684I18J25*
G01*
Y595*
G75*
G02X3401Y583I-18*
G01*
X3386Y568*
Y370*
G75*
G02X3399Y345I-18J-25*
G01*
G75*
G02X3338I-31*
G01*
G75*
G02X3351Y370I31*
G01*
Y403*
X3351Y403*
X3299Y350*
G75*
G02X3299Y345I-30J-5*
G01*
G75*
G02X3238I-31*
G01*
G75*
G02X3251Y370I31*
G01*
G75*
G02X3251Y420I17J25*
G01*
X3699Y595D02*
G75*
G02X3778I40D01*
G01*
G75*
G02X3699I-40*
G01*
X3744Y1115D02*
X3752Y1122D01*
X3686*
Y1207*
X3771*
Y1142*
X3786Y1157*
Y1207*
X3871*
Y1122*
X3801*
X3769Y1090*
G75*
G02X3769Y1085I-30J-5*
G01*
G75*
G02X3708I-31*
G01*
G75*
G02X3744Y1115I31*
G01*
X3844Y1037D02*
G75*
G02X3788Y1055I-25J18D01*
G01*
G75*
G02X3844Y1072I31*
G01*
X3952*
X3967Y1087*
G75*
G02X3979Y1092I12J-12*
G01*
X4114*
G75*
G02X4169Y1075I25J-18*
G01*
G75*
G02X4114Y1057I-31*
G01*
X3986*
X3971Y1043*
G75*
G02X3959Y1037I-12J12*
G01*
X3936*
G75*
G02X3944Y1015I-27J-22*
G01*
G75*
G02X3873I-36*
G01*
G75*
G02X3881Y1037I36J0*
G01*
X3844*
X3851Y167D02*
Y82D01*
X3766*
Y167*
X3851*
X3886Y1122D02*
Y1207D01*
X3971*
Y1122*
X3886*
X3929Y575D02*
G75*
G02X4008I40D01*
G01*
G75*
G02X3929I-40*
G01*
X4051Y125D02*
G75*
G02X3966I-43D01*
G01*
G75*
G02X4051I43*
G01*
X2624Y485D02*
G36*
Y185D01*
X2759*
G75*
G02X2838I40*
G01*
X4349*
Y332*
G75*
G02X4298Y355I-20J23*
G01*
G75*
G02X4309Y378I31*
G01*
Y409*
G75*
G02X4248Y415I-30J5*
G01*
G75*
G02X4259Y438I31*
G01*
Y472*
G75*
G02X4250Y485I20J23*
G01*
X3754*
G75*
G02X3766Y430I-5J-30*
G01*
G75*
G02X3754Y375I-17J-25*
G01*
X4116*
G75*
G02X4169Y355I23J-20*
G01*
G75*
G02X4116Y335I-31*
G01*
X3682*
G75*
G02X3628Y355I-23J20*
G01*
G75*
G02X3682Y375I31*
G01*
X3743*
G75*
G02X3724Y387I5J30*
G01*
X3609*
G75*
G02X3597Y393J18*
G01*
X3523Y466*
G75*
G02X3453Y475I-34J9*
G01*
G75*
G02X3480Y509I36*
G01*
X3417Y573*
G75*
G02X3411Y585I12J12*
G01*
Y680*
G75*
G02X3406Y684I18J25*
G01*
Y595*
G75*
G02X3401Y583I-18*
G01*
X3386Y568*
Y370*
G75*
G02X3399Y345I-18J-25*
G01*
G75*
G02X3338I-31*
G01*
G75*
G02X3351Y370I31*
G01*
Y403*
X3351Y403*
X3299Y350*
G75*
G02X3299Y345I-30J-5*
G01*
G75*
G02X3238I-31*
G01*
G75*
G02X3251Y370I31*
G01*
G75*
G02X3251Y420I17J25*
G01*
Y485*
X2893*
G75*
G02X2825I-34J20*
G01*
X2701*
X2681Y466*
Y281*
G75*
G02X2693Y255I-23J-26*
G01*
G75*
G02X2624I-35*
G01*
G75*
G02X2636Y281I35*
G01*
Y475*
G75*
G02X2639Y485I23J0*
G01*
X2624*
G37*
X2639D02*
G36*
G75*
G02X2643Y491I20J-10D01*
G01*
X2747Y595*
X2624*
Y485*
X2639*
G37*
X2825D02*
G36*
G75*
G02X2819Y505I34J20D01*
G01*
G75*
G02X2898I40*
G01*
G75*
G02X2893Y485I-40*
G01*
X3251*
Y575*
G75*
G02X3257Y587I18*
G01*
X3264Y595*
X3146*
Y575*
G75*
G02X3141Y563I-18*
G01*
X3129Y550*
G75*
G02X3129Y545I-30J-5*
G01*
G75*
G02X3068I-31*
G01*
G75*
G02X3081Y570I31*
G01*
G75*
G02X3068Y595I17J25*
G01*
X2811*
X2701Y485*
X2825*
G37*
X4250D02*
G36*
G75*
G02X4248Y495I29J10D01*
G01*
G75*
G02X4309Y500I31*
G01*
Y517*
X4275Y551*
G75*
G02X4273Y552I14J14*
G01*
G75*
G02X4239Y537I-35J33*
G01*
G75*
G02X4193Y595J48*
G01*
X4003*
G75*
G02X4008Y575I-34J-20*
G01*
G75*
G02X3929I-40*
G01*
G75*
G02X3935Y595I40*
G01*
X3836*
Y585*
G75*
G02X3831Y573I-18*
G01*
X3779Y520*
G75*
G02X3754Y485I-30J-5*
G01*
X4250*
G37*
X2624Y852D02*
G36*
Y805D01*
X2839*
G75*
G02X2918I40*
G01*
X3061*
Y852*
X2624*
G37*
X3061D02*
G36*
Y915D01*
G75*
G02X3067Y927I18*
G01*
X3147Y1007*
G75*
G02X3159Y1012I12J-12*
G01*
X3364*
G75*
G02X3419Y990I25J-18*
G01*
X3507Y1077*
X3507Y1077*
X2979*
G75*
G02X2979Y1075I-30J-2*
G01*
G75*
G02X2918I-31*
G01*
G75*
G02X2954Y1105I31*
G01*
X2957Y1107*
X2957Y1107*
X2790*
G75*
G02X2783Y1105I-11J18*
G01*
X2729Y1050*
G75*
G02X2696Y1015I-30J-5*
G01*
G75*
G02X2714Y1002I-7J-30*
G01*
X2994*
G75*
G02X3049Y985I25J-18*
G01*
G75*
G02X2994Y967I-31*
G01*
X2714*
G75*
G02X2658Y985I-25J18*
G01*
G75*
G02X2692Y1015I31*
G01*
G75*
G02X2669Y1042I7J30*
G01*
X2624*
Y852*
X3061*
G37*
X3221D02*
G36*
X3174Y805D01*
X3331*
Y815*
G75*
G02X3337Y827I18*
G01*
X3362Y852*
X3221*
G37*
X3362D02*
G36*
X3369Y860D01*
G75*
G02X3368Y865I30J5*
G01*
G75*
G02X3428Y873I31*
G01*
G75*
G02X3459Y868I11J-29*
G01*
G75*
G02X3458Y875I30J7*
G01*
G75*
G02X3519I31*
G01*
G75*
G02X3512Y855I-31*
G01*
G75*
G02X3542Y845I7J-30*
G01*
X3616*
G75*
G02X3669Y825I23J-20*
G01*
G75*
G02X3616Y805I-31*
G01*
X3542*
G75*
G02X3489Y820I-23J20*
G01*
X3451Y783*
G75*
G02X3447Y779I-12J12*
G01*
G75*
G02X3459Y760I-18J-25*
G01*
X3481Y737*
G75*
G02X3486Y725I-12J-12*
G01*
Y695*
G75*
G02X3481Y683I-18*
G01*
X3476Y678*
Y592*
X3596Y472*
X3724*
G75*
G02X3743Y485I25J-18*
G01*
G75*
G02X3754Y545I5J30*
G01*
X3801Y592*
Y595*
X3778*
G75*
G02X3699I-40*
G01*
X3584*
X3581Y593*
G75*
G02X3569Y587I-12J12*
G01*
X3564*
G75*
G02X3508Y605I-25J18*
G01*
G75*
G02X3563Y624I31*
G01*
X3751Y812*
Y840*
G75*
G02X3774Y895I18J25*
G01*
X3742Y927*
X3724*
G75*
G02X3668Y945I-25J18*
G01*
G75*
G02X3724Y962I31*
G01*
X3745*
G75*
G02X3723Y995I14J33*
G01*
G75*
G02X3794I36*
G01*
G75*
G02X3759Y959I-36*
G01*
G75*
G02X3761Y957I-10J-15*
G01*
X3831Y887*
G75*
G02X3836Y875I-12J-12*
G01*
Y852*
X4204*
G75*
G02X4239Y932I35J33*
G01*
G75*
G02X4269Y922J-48*
G01*
Y935*
G75*
G02X4270Y942I20J0*
G01*
X4196*
Y1027*
X4281*
Y956*
X4298Y973*
G75*
G02X4339Y1027I41J12*
G01*
G75*
G02Y942J-43*
G01*
G75*
G02X4327Y944I0J43*
G01*
X4309Y927*
Y915*
G75*
G02X4339Y927I30J-30*
G01*
G75*
G02Y842J-43*
G01*
G75*
G02X4309Y855I0J43*
G01*
Y815*
G75*
G02X4339Y827I30J-30*
G01*
G75*
G02Y742J-43*
G01*
G75*
G02X4309Y755I0J43*
G01*
Y747*
G75*
G02Y723I-20J-12*
G01*
Y715*
G75*
G02X4376Y705I30J-30*
G01*
X4399*
G75*
G02X4413Y699J-20*
G01*
X4463Y649*
G75*
G02X4464Y648I-14J-14*
G01*
Y1042*
X3971*
G75*
G02X3959Y1037I-12J13*
G01*
X3936*
G75*
G02X3944Y1015I-27J-22*
G01*
G75*
G02X3873I-36*
G01*
G75*
G02X3881Y1037I36J0*
G01*
X3844*
G75*
G02X3791Y1042I-25J18*
G01*
X3600*
G75*
G02X3554Y1047I-21J23*
G01*
X3526*
X3381Y903*
G75*
G02X3369Y897I-12J12*
G01*
X3364*
G75*
G02X3314Y897I-25J18*
G01*
G75*
G02X3284Y885I-25J17*
G01*
X3281Y883*
G75*
G02X3269Y877I-12J12*
G01*
X3246*
X3221Y852*
X3362*
G37*
X3836D02*
G36*
Y805D01*
X4196*
G75*
G02X4269Y822I43J-20*
G01*
Y848*
G75*
G02X4239Y837I-30J37*
G01*
G75*
G02X4204Y852J48*
G01*
X3836*
G37*
X2624Y185D02*
G36*
Y80D01*
X2688*
G75*
G02X2679Y105I31J25*
G01*
G75*
G02X2753Y125I40*
G01*
X3766*
Y167*
X3851*
Y125*
X3861*
G75*
G02X3956I48*
G01*
X3966*
G75*
G02X4051I43*
G01*
X4055*
G75*
G02X4128Y105I34J-20*
G01*
G75*
G02X4120Y80I-40*
G01*
X4411*
G75*
G02X4406Y85I17J25*
G01*
G75*
G02X4395Y91I3J20*
G01*
X4355Y131*
G75*
G02X4349Y145I14J14*
G01*
Y185*
X2838*
G75*
G02X2759I-40*
G01*
X2624*
G37*
Y805D02*
G36*
Y695D01*
X2831*
G75*
G02X2824Y715I28J20*
G01*
G75*
G02X2893I35*
G01*
G75*
G02X2887Y695I-35*
G01*
X3061*
Y805*
X2918*
G75*
G02X2839I-40*
G01*
X2624*
G37*
X3174D02*
G36*
X3166Y798D01*
Y695*
X3173*
G75*
G02X3244I36*
G01*
X3331*
Y805*
X3174*
G37*
X3836D02*
G36*
Y695D01*
X4198*
G75*
G02X4209Y715I41J-10*
G01*
X4022*
G75*
G02X3968Y735I-23J20*
G01*
G75*
G02X4022Y755I31*
G01*
X4202*
G75*
G02X4196Y805I37J30*
G01*
X3836*
G37*
X2624Y695D02*
G36*
Y595D01*
X2747*
X2836Y684*
Y689*
G75*
G02X2831Y695I23J26*
G01*
X2624*
G37*
X2887D02*
G36*
G75*
G02X2881Y689I-28J20D01*
G01*
Y675*
G75*
G02X2875Y659I-23*
G01*
X2811Y595*
X3068*
G75*
G02X3069Y600I30J0*
G01*
X3067Y603*
G75*
G02X3061Y615I12J12*
G01*
Y695*
X2887*
G37*
X3166D02*
G36*
Y670D01*
G75*
G02X3146Y615I-18J-25*
G01*
Y595*
X3264*
X3331Y662*
Y695*
X3244*
G75*
G02X3173I-36*
G01*
X3166*
G37*
X3836D02*
G36*
Y595D01*
X3935*
G75*
G02X4003I34J-20*
G01*
X4193*
G75*
G02X4239Y632I46J-10*
G01*
G75*
G02X4269Y622J-48*
G01*
Y655*
G75*
G02X4198Y695I-30J30*
G01*
X3836*
G37*
X3699Y595D02*
G36*
G75*
G02X3778I40D01*
G01*
X3801*
Y868*
X3799Y870*
G75*
G02X3786Y840I-30J-5*
G01*
Y805*
G75*
G02X3781Y793I-18*
G01*
X3584Y595*
X3699*
G37*
X2624Y1131D02*
G36*
Y1042D01*
X2669*
G75*
G02X2704Y1075I30J3*
G01*
X2759Y1129*
G75*
G02X2759Y1131I20J-4*
G01*
X2624*
G37*
X2759D02*
G36*
G75*
G02X2790Y1142I20J-6D01*
G01*
X3286*
G75*
G02X3283Y1155I33J12*
G01*
G75*
G02X3354I36*
G01*
G75*
G02X3352Y1142I-36J0*
G01*
X3414*
G75*
G02X3467Y1112I25J-18*
G01*
X3499*
G75*
G02X3545Y1131I30J-8*
G01*
X3581*
Y1211*
X2624*
Y1131*
X2759*
G37*
X3545D02*
G36*
G75*
G02X3559Y1105I-16J-26D01*
G01*
G75*
G02X3550Y1082I-31*
G01*
X3554*
G75*
G02X3609Y1065I25J-18*
G01*
G75*
G02X3600Y1042I-31*
G01*
X3791*
G75*
G02X3788Y1055I28J12*
G01*
G75*
G02X3844Y1072I31*
G01*
X3952*
X3967Y1087*
G75*
G02X3979Y1092I12J-12*
G01*
X4114*
G75*
G02X4169Y1075I25J-18*
G01*
G75*
G02X4114Y1057I-31*
G01*
X3986*
X3971Y1043*
X3971Y1042*
X4464*
Y1131*
X3971*
Y1122*
X3886*
Y1131*
X3871*
Y1122*
X3801*
X3769Y1090*
G75*
G02X3769Y1085I-30J-5*
G01*
G75*
G02X3708I-31*
G01*
G75*
G02X3744Y1115I31*
G01*
X3752Y1122*
X3686*
Y1131*
X3676*
Y1117*
X3581*
Y1131*
X3545*
G37*
X3686D02*
G36*
Y1207D01*
X3771*
Y1142*
X3786Y1157*
Y1207*
X3871*
Y1131*
X3886*
Y1207*
X3971*
Y1131*
X4464*
Y1211*
X3676*
Y1131*
X3686*
G37*
X2753Y125D02*
G36*
G75*
G02X2758Y105I-34J-20D01*
G01*
G75*
G02X2750Y80I-40*
G01*
X3894*
G75*
G02X3861Y125I15J45*
G01*
X3851*
Y82*
X3766*
Y125*
X2753*
G37*
X3956D02*
G36*
G75*
G02X3924Y80I-48D01*
G01*
X4058*
G75*
G02X4049Y105I31J25*
G01*
G75*
G02X4055Y125I40*
G01*
X4051*
G75*
G02X3966I-43*
G01*
X3956*
G37*
D02*
D12*
X3629Y1165D03*
X3729D03*
X3809Y125D03*
X3829Y1165D03*
X3929D03*
X4239Y985D03*
D02*
D13*
X3909Y125D03*
X4009D03*
X4239Y585D03*
Y685D03*
Y785D03*
Y885D03*
X4339Y585D03*
Y685D03*
Y785D03*
Y885D03*
Y985D03*
D02*
D15*
X2689D03*
X2699Y1045D03*
X2949Y1075D03*
X3019Y985D03*
X3099Y545D03*
Y595D03*
X3149Y645D03*
X3199Y955D03*
X3209Y695D03*
X3249Y945D03*
X3269Y345D03*
Y395D03*
X3289Y915D03*
X3319Y1155D03*
X3339Y915D03*
X3349Y965D03*
X3369Y345D03*
X3389Y995D03*
X3399Y865D03*
X3429Y705D03*
Y755D03*
X3439Y845D03*
Y1125D03*
X3489Y475D03*
Y875D03*
X3519Y825D03*
X3529Y1105D03*
X3539Y605D03*
X3579Y1065D03*
X3639Y825D03*
X3659Y355D03*
X3699Y945D03*
X3739Y1085D03*
X3749Y405D03*
Y455D03*
Y515D03*
X3759Y995D03*
X3769Y865D03*
X3819Y1055D03*
X3909Y1015D03*
X3999Y735D03*
X4139Y355D03*
Y1075D03*
X4279Y415D03*
Y495D03*
X4329Y355D03*
X4409D03*
Y455D03*
X4429Y105D03*
Y165D03*
D02*
D16*
X2699Y1045D02*
X2779Y1125D01*
X3019Y985D02*
X2689D01*
X3099Y545D02*
X3129Y575D01*
Y615*
X3109Y635*
Y805*
X3249Y945*
X3099Y595D02*
X3079Y615D01*
Y915*
X3159Y995*
X3389*
X3269Y345D02*
X3339Y415D01*
Y605*
X3369Y635*
Y795*
X3399Y825*
X3419*
X3439Y845*
X3269Y395D02*
Y575D01*
X3349Y655*
Y815*
X3399Y865*
X3289Y915D02*
X3269Y895D01*
X3239*
X3149Y805*
Y645*
X3349Y965D02*
X3329D01*
X3319Y975*
X3219*
X3199Y955*
X3369Y345D02*
Y575D01*
X3389Y595*
Y775*
X3409Y795*
X3439*
X3489Y845*
Y875*
X3439Y1125D02*
X2779D01*
X3529Y1105D02*
X3519Y1095D01*
X2969*
X2949Y1075*
X3539Y605D02*
X3569D01*
X3769Y805*
Y865*
X3579Y1065D02*
X3519D01*
X3369Y915*
X3339*
X3749Y405D02*
X3609D01*
X3429Y585*
Y705*
X3749Y455D02*
X3589D01*
X3459Y585*
Y685*
X3469Y695*
Y725*
X3439Y755*
X3429*
X3749Y515D02*
X3819Y585D01*
Y875*
X3749Y945*
X3699*
X3819Y1055D02*
X3959D01*
X3979Y1075*
X4139*
X3829Y1165D02*
X3819D01*
X3739Y1085*
D02*
D17*
X2659Y255D03*
X2719Y105D03*
X2799Y185D03*
X2859Y505D03*
Y715D03*
X2879Y805D03*
X3739Y595D03*
X3969Y575D03*
X4089Y105D03*
D02*
D18*
X2859Y715D02*
Y675D01*
X2659Y475*
Y255*
D02*
D19*
X3639Y825D02*
X3519D01*
X3659Y355D02*
X4139D01*
X3999Y735D02*
X4289D01*
X4279Y415D02*
Y495D01*
X4289Y735D02*
Y935D01*
X4339Y985*
X4329Y355D02*
Y525D01*
X4289Y565*
Y735*
X4409Y355D02*
Y455D01*
X4429Y105D02*
X4409D01*
X4369Y145*
Y555*
X4339Y585*
X4429Y165D02*
X4449Y185D01*
Y635*
X4399Y685*
X4339*
D02*
D107*
X2703Y105D02*
X2676D01*
X2719Y121D02*
Y148D01*
X2735Y105D02*
X2762D01*
X2783Y185D02*
X2756D01*
X2799Y169D02*
Y142D01*
Y201D02*
Y228D01*
X2815Y185D02*
X2842D01*
X2843Y505D02*
X2816D01*
X2859Y489D02*
Y462D01*
Y521D02*
Y548D01*
X2863Y805D02*
X2836D01*
X2875Y505D02*
X2902D01*
X2879Y789D02*
Y762D01*
Y821D02*
Y848D01*
X2895Y805D02*
X2922D01*
X3197Y695D02*
X3170D01*
X3209Y683D02*
Y656D01*
Y707D02*
Y734D01*
X3221Y695D02*
X3248D01*
X3307Y1155D02*
X3280D01*
X3319Y1167D02*
Y1194D01*
X3331Y1155D02*
X3358D01*
X3480Y466D02*
X3461Y447D01*
X3480Y483D02*
X3461Y503D01*
X3497Y466D02*
X3517Y447D01*
X3605Y1165D02*
X3578D01*
X3629Y1141D02*
Y1114D01*
X3653Y1165D02*
X3680D01*
X3723Y595D02*
X3696D01*
X3739Y579D02*
Y552D01*
Y611D02*
Y638D01*
X3750Y986D02*
X3731Y967D01*
X3750Y1003D02*
X3731Y1023D01*
X3755Y595D02*
X3782D01*
X3767Y986D02*
X3787Y967D01*
X3767Y1003D02*
X3787Y1023D01*
X3892Y108D02*
X3873Y89D01*
X3892Y142D02*
X3873Y161D01*
X3897Y1015D02*
X3870D01*
X3909Y1003D02*
Y976D01*
X3921Y1015D02*
X3948D01*
X3926Y108D02*
X3945Y89D01*
X3926Y142D02*
X3945Y161D01*
X3953Y575D02*
X3926D01*
X3969Y559D02*
Y532D01*
Y591D02*
Y618D01*
X3985Y575D02*
X4012D01*
X4089Y121D02*
Y148D01*
X4105Y105D02*
X4132D01*
X4215Y585D02*
X4188D01*
X4215Y785D02*
X4188D01*
X4215Y885D02*
X4188D01*
X4239Y561D02*
Y534D01*
Y609D02*
Y636D01*
Y909D02*
Y936D01*
X0Y0D02*
M02*
