%FSLAX23Y23*%
%MOIN*%
G04 EasyPC Gerber Version 16.0.6 Build 3249 *
%ADD85R,0.01781X0.05324*%
%ADD96R,0.02600X0.04600*%
%ADD97R,0.02600X0.05600*%
%ADD95R,0.02962X0.09261*%
%ADD86R,0.05324X0.01781*%
%ADD99R,0.06000X0.01800*%
%ADD90R,0.07100X0.02175*%
%ADD94R,0.05600X0.02800*%
%ADD98R,0.03169X0.02962*%
%ADD83R,0.04143X0.06899*%
%ADD101R,0.10443X0.03553*%
%ADD84R,0.06899X0.04143*%
%ADD89R,0.06899X0.08868*%
%ADD102R,0.08080X0.10600*%
%ADD92R,0.06600X0.06600*%
%ADD91R,0.06900X0.06900*%
%ADD88R,0.08080X0.08080*%
%ADD104C,0.04200*%
%ADD105C,0.05000*%
%ADD87R,0.08080X0.07687*%
%ADD93C,0.06600*%
%ADD100R,0.06899X0.08474*%
%ADD103C,0.06600*%
X0Y0D02*
D02*
D83*
X2752Y295D03*
X2752Y405D03*
X2866Y295D03*
X2866Y405D03*
X2922Y365D03*
Y515D03*
Y585D03*
Y685D03*
X2922Y445D03*
X2942Y805D03*
X2942Y885D03*
X2952Y1135D03*
X3036Y365D03*
Y515D03*
Y585D03*
Y685D03*
X3036Y445D03*
X3056Y805D03*
X3056Y885D03*
X3066Y1135D03*
X3112Y345D03*
X3162Y1155D03*
X3226Y345D03*
X3276Y1155D03*
X3312Y345D03*
X3426D03*
X3432Y435D03*
Y515D03*
X3546Y435D03*
Y515D03*
X3812Y575D03*
X3862Y965D03*
Y1065D03*
X3926Y575D03*
X3976Y965D03*
Y1065D03*
D02*
D84*
X2659Y98D03*
Y212D03*
Y298D03*
Y412D03*
X3619Y178D03*
Y292D03*
X3679Y598D03*
Y712D03*
X3699Y888D03*
Y1002D03*
X3709Y178D03*
Y292D03*
X4039Y238D03*
Y352D03*
X4049Y958D03*
Y1072D03*
D02*
D85*
X3211Y609D03*
Y1061D03*
X3231Y609D03*
Y1061D03*
X3251Y609D03*
Y1061D03*
X3270Y609D03*
Y1061D03*
X3290Y609D03*
Y1061D03*
X3310Y609D03*
Y1061D03*
X3329Y609D03*
Y1061D03*
X3349Y609D03*
Y1061D03*
X3369Y609D03*
Y1061D03*
X3388Y609D03*
Y1061D03*
X3408Y609D03*
Y1061D03*
X3428Y609D03*
Y1061D03*
X3448Y609D03*
Y1061D03*
X3467Y609D03*
Y1061D03*
X3487Y609D03*
Y1061D03*
X3507Y609D03*
Y1061D03*
D02*
D86*
X3133Y687D03*
Y707D03*
Y727D03*
Y746D03*
Y766D03*
Y786D03*
Y805D03*
Y825D03*
Y845D03*
Y864D03*
Y884D03*
Y904D03*
Y924D03*
Y943D03*
Y963D03*
Y983D03*
X3585Y687D03*
Y707D03*
Y727D03*
Y746D03*
Y766D03*
Y786D03*
Y805D03*
Y825D03*
Y845D03*
Y864D03*
Y884D03*
Y904D03*
Y924D03*
Y943D03*
Y963D03*
Y983D03*
D02*
D87*
X2689Y488D03*
Y802D03*
D02*
D88*
Y598D03*
Y692D03*
D02*
D89*
X2791Y523D03*
Y767D03*
D02*
D90*
X2796Y594D03*
Y619D03*
Y645D03*
Y671D03*
Y696D03*
D02*
D91*
X2969Y118D03*
Y252D03*
X3159Y118D03*
Y252D03*
X3359Y118D03*
Y252D03*
X3529Y118D03*
Y252D03*
D02*
D92*
X3519Y1165D03*
X3809Y135D03*
X4239Y985D03*
D02*
D93*
X3909Y135D03*
X4009D03*
X4239Y585D03*
Y685D03*
Y785D03*
Y885D03*
X4339Y585D03*
Y685D03*
Y785D03*
Y885D03*
Y985D03*
D02*
D94*
X2751Y147D03*
Y185D03*
Y222D03*
X2847Y147D03*
Y222D03*
D02*
D95*
X3804Y273D03*
Y477D03*
X3854Y273D03*
Y477D03*
X3904Y273D03*
Y477D03*
X3954Y273D03*
Y477D03*
D02*
D96*
X3621Y512D03*
X3696D03*
D02*
D97*
X3659Y442D03*
D02*
D98*
X4032Y405D03*
X4066D03*
D02*
D99*
X3830Y660D03*
Y685D03*
Y711D03*
Y737D03*
Y762D03*
Y788D03*
Y813D03*
Y839D03*
Y864D03*
Y890D03*
X4048Y660D03*
Y685D03*
Y711D03*
Y737D03*
Y762D03*
Y788D03*
Y813D03*
Y839D03*
Y864D03*
Y890D03*
D02*
D100*
X2689Y907D03*
Y1123D03*
X2849Y907D03*
Y1123D03*
D02*
D101*
X4177Y114D03*
Y164D03*
Y214D03*
Y264D03*
Y314D03*
X4334Y114D03*
Y164D03*
Y214D03*
Y264D03*
Y314D03*
D02*
D102*
X3172Y495D03*
X3346D03*
D02*
D103*
X3619Y1165D03*
X3719D03*
X3819D03*
X3919D03*
X4019D03*
D02*
D104*
X2689Y985D03*
X2699Y1045D03*
X3009Y1005D03*
Y1085D03*
X3079Y585D03*
Y685D03*
Y985D03*
X3159Y615D03*
X3189Y695D03*
X3249Y945D03*
X3269Y345D03*
Y395D03*
X3289Y915D03*
X3319Y1155D03*
X3339Y915D03*
X3349Y965D03*
X3369Y345D03*
Y1005D03*
X3399Y865D03*
X3429Y705D03*
Y755D03*
X3439Y845D03*
Y1125D03*
X3489Y875D03*
X3529Y825D03*
Y1105D03*
X3539Y605D03*
X3589Y1045D03*
X3639Y825D03*
X3659Y365D03*
X3749Y405D03*
Y455D03*
Y1045D03*
X3759Y515D03*
X3769Y865D03*
Y965D03*
X3909Y975D03*
X3999Y735D03*
X4139Y365D03*
X4279Y415D03*
Y495D03*
X4329Y355D03*
X4409Y265D03*
Y455D03*
X4439Y115D03*
Y165D03*
D02*
D105*
X2659Y255D03*
X2719Y105D03*
X2799Y185D03*
X2859Y505D03*
Y715D03*
Y775D03*
X2949Y945D03*
X3489Y475D03*
X3599Y115D03*
X3689Y1045D03*
X3739Y595D03*
X3969Y575D03*
X4089Y115D03*
X0Y0D02*
M02*
